# xmcd CD database file
#
# Track frame offsets:
#	182
#	21735
#	44792
#	65620
#	91260
#	111837
#	140515
#	160990
#	189302
#	222377
#	245607
#
# Disc length: 3569 seconds
#
# Revision: 0
# Processed by: cddbd v1.5.2PL0 Copyright (c) Steve Scherf et al.
# Submitted via: CDex 1.51
#
DISCID=a90def0b
DTITLE=Paul Desmond - Bossa Antigua
DYEAR=1963
DGENRE=Jazz
TTITLE0=Bossa Antigua
TTITLE1=The Night Has a Thousand Eyes
TTITLE2=O Gato
TTITLE3=Samba Cantina
TTITLE4=Curacao Doloroso
TTITLE5=Ship Without a Sail
TTITLE6=Alianca
TTITLE7=The Girl from East 9th Streat
TTITLE8=The Night Has a Thousands Eyes
TTITLE9=Samba Cepeda
TTITLE10=Gato
EXTD=YEAR: 1963
EXTT0=
EXTT1=
EXTT2=
EXTT3=
EXTT4=
EXTT5=
EXTT6=
EXTT7=
EXTT8=
EXTT9=
EXTT10=
PLAYORDER=
